<svg width="24" height="29" viewBox="0 0 24 29" fill="none" xmlns="http://www.w3.org/2000/svg">
  <path d="M2.5 5.35784C2.5 5.12729 2.57902 4.90617 2.71967 4.74314C2.86032 4.58011 3.05109 4.48853 3.25 4.48853H3.808C4.758 4.48853 5.328 5.22918 5.653 5.91768C5.87 6.37668 6.027 6.90871 6.15 7.39089C6.18327 7.38784 6.21663 7.3863 6.25 7.38625H18.748C19.578 7.38625 20.178 8.30657 19.95 9.23268L18.122 16.6613C17.9581 17.3276 17.6114 17.9139 17.1343 18.3313C16.6572 18.7488 16.0758 18.9747 15.478 18.9748H9.53C8.92749 18.9749 8.34165 18.7455 7.86252 18.3221C7.3834 17.8987 7.0375 17.3046 6.878 16.6312L6.118 13.4182L4.858 8.49434L4.857 8.48507C4.701 7.82787 4.555 7.21239 4.337 6.75339C4.128 6.30714 3.96 6.22716 3.809 6.22716H3.25C3.05109 6.22716 2.86032 6.13557 2.71967 5.97254C2.57902 5.80952 2.5 5.5884 2.5 5.35784ZM7.573 12.9963L8.324 16.171C8.474 16.7992 8.967 17.2362 9.53 17.2362H15.478C15.7497 17.2362 16.014 17.1336 16.2309 16.9439C16.4478 16.7542 16.6054 16.4878 16.68 16.1849L18.417 9.12489H6.585L7.559 12.9348L7.573 12.9963Z" fill="white" />
  <path d="M11 22.4544C11 23.0692 10.7893 23.6589 10.4142 24.0936C10.0391 24.5284 9.53043 24.7726 9 24.7726C8.46957 24.7726 7.96086 24.5284 7.58579 24.0936C7.21071 23.6589 7 23.0692 7 22.4544C7 21.8396 7.21071 21.25 7.58579 20.8152C7.96086 20.3805 8.46957 20.1362 9 20.1362C9.53043 20.1362 10.0391 20.3805 10.4142 20.8152C10.7893 21.25 11 21.8396 11 22.4544V22.4544ZM9.5 22.4544C9.5 22.3007 9.44732 22.1533 9.35355 22.0446C9.25979 21.9359 9.13261 21.8749 9 21.8749C8.86739 21.8749 8.74021 21.9359 8.64645 22.0446C8.55268 22.1533 8.5 22.3007 8.5 22.4544C8.5 22.6081 8.55268 22.7555 8.64645 22.8642C8.74021 22.9729 8.86739 23.034 9 23.034C9.13261 23.034 9.25979 22.9729 9.35355 22.8642C9.44732 22.7555 9.5 22.6081 9.5 22.4544Z" fill="white" />
  <path d="M18 22.4544C18 23.0692 17.7893 23.6589 17.4142 24.0936C17.0391 24.5284 16.5304 24.7726 16 24.7726C15.4696 24.7726 14.9609 24.5284 14.5858 24.0936C14.2107 23.6589 14 23.0692 14 22.4544C14 21.8396 14.2107 21.25 14.5858 20.8152C14.9609 20.3805 15.4696 20.1362 16 20.1362C16.5304 20.1362 17.0391 20.3805 17.4142 20.8152C17.7893 21.25 18 21.8396 18 22.4544V22.4544ZM16.5 22.4544C16.5 22.3007 16.4473 22.1533 16.3536 22.0446C16.2598 21.9359 16.1326 21.8749 16 21.8749C15.8674 21.8749 15.7402 21.9359 15.6464 22.0446C15.5527 22.1533 15.5 22.3007 15.5 22.4544C15.5 22.6081 15.5527 22.7555 15.6464 22.8642C15.7402 22.9729 15.8674 23.034 16 23.034C16.1326 23.034 16.2598 22.9729 16.3536 22.8642C16.4473 22.7555 16.5 22.6081 16.5 22.4544Z" fill="white" />
</svg>